<?xml version="1.0" encoding="UTF-8" standalone="no"?>
<!-- Created with Inkscape (http://www.inkscape.org/) -->

<svg
   xmlns:dc="http://purl.org/dc/elements/1.1/"
   xmlns:cc="http://creativecommons.org/ns#"
   xmlns:rdf="http://www.w3.org/1999/02/22-rdf-syntax-ns#"
   xmlns:svg="http://www.w3.org/2000/svg"
   xmlns="http://www.w3.org/2000/svg"
   xmlns:sodipodi="http://sodipodi.sourceforge.net/DTD/sodipodi-0.dtd"
   xmlns:inkscape="http://www.inkscape.org/namespaces/inkscape"
   id="svg2985"
   version="1.1"
   inkscape:version="0.48.4 r9939"
   width="240.22473"
   height="239.94145"
   sodipodi:docname="logovector.svg"
   inkscape:export-filename="D:\xTemp\logovector.png"
   inkscape:export-xdpi="1336.9489"
   inkscape:export-ydpi="1336.9489">
  <metadata
     id="metadata2991">
    <rdf:RDF>
      <cc:Work
         rdf:about="">
        <dc:format>image/svg+xml</dc:format>
        <dc:type
           rdf:resource="http://purl.org/dc/dcmitype/StillImage" />
        <dc:title />
      </cc:Work>
    </rdf:RDF>
  </metadata>
  <defs
     id="defs2989">
    <inkscape:path-effect
       effect="spiro"
       id="path-effect3025"
       is_visible="true" />
    <inkscape:path-effect
       effect="spiro"
       id="path-effect3021"
       is_visible="true" />
    <inkscape:path-effect
       effect="spiro"
       id="path-effect3017"
       is_visible="true" />
    <inkscape:path-effect
       effect="spiro"
       id="path-effect3013"
       is_visible="true" />
    <inkscape:path-effect
       effect="spiro"
       id="path-effect3009"
       is_visible="true" />
    <inkscape:path-effect
       effect="spiro"
       id="path-effect3005"
       is_visible="true" />
    <inkscape:path-effect
       effect="spiro"
       id="path-effect3017-1"
       is_visible="true" />
    <inkscape:path-effect
       effect="spiro"
       id="path-effect3013-5"
       is_visible="true" />
    <inkscape:path-effect
       effect="spiro"
       id="path-effect3009-7"
       is_visible="true" />
  </defs>
  <sodipodi:namedview
     pagecolor="#ffffff"
     bordercolor="#666666"
     borderopacity="1"
     objecttolerance="10"
     gridtolerance="10"
     guidetolerance="10"
     inkscape:pageopacity="0"
     inkscape:pageshadow="2"
     inkscape:window-width="1366"
     inkscape:window-height="745"
     id="namedview2987"
     showgrid="false"
     inkscape:zoom="2.5070655"
     inkscape:cx="65.149168"
     inkscape:cy="104.72866"
     inkscape:window-x="-8"
     inkscape:window-y="-8"
     inkscape:window-maximized="1"
     inkscape:current-layer="g2996"
     fit-margin-top="20"
     fit-margin-left="20"
     fit-margin-right="20"
     fit-margin-bottom="20" />
  <g
     id="g2996"
     transform="matrix(1.0766429,0,0,1.0067509,-9.708615,9.7192839)">
    <rect
       style="fill:#000000;stroke:none;stroke-width:1;stroke-linecap:butt;stroke-linejoin:miter;stroke-miterlimit:4;stroke-opacity:1;stroke-dasharray:none;stroke-dashoffset:0;fill-opacity:1"
       id="rect3006"
       width="240.12137"
       height="241.31799"
       x="0"
       y="-0.57878965"
       transform="matrix(0.92881307,0,0,0.99329437,9.0174885,-9.65411)" />
    <path
       sodipodi:nodetypes="cczzcsscsc"
       inkscape:connector-curvature="0"
       id="path2999"
       d="m 42.552758,57.324478 c 0,0 0.715288,61.656422 0,74.354062 -0.715288,12.69763 -11.599697,-6.80214 -8.872715,-0.68215 2.726983,6.12 6.818513,28.94878 18.801703,14.52193 0,0 0.422512,3.10144 -0.42251,-97.856381 0,0 -2.339887,-7.651124 -7.120759,-7.333082 -2.344209,0.155939 -7.397026,4.83028 -9.794951,11.058523 -2.397927,6.228241 -2.942269,13.781793 -2.942269,13.781793 0,0 4.247111,-7.877073 7.1476,-9.699081 3.229273,-2.028539 3.203901,1.854386 3.203901,1.854386 z"
       style="fill:#ffffff;stroke:none;stroke-width:0.93038266999999997;stroke-linecap:butt;stroke-linejoin:miter;stroke-miterlimit:4;stroke-opacity:1;stroke-dasharray:none;fill-opacity:1" />
    <path
       sodipodi:nodetypes="cacaccccacacaaccacc"
       inkscape:connector-curvature="0"
       inkscape:original-d="m 76.355786,159.5077 c 0,0 8.719834,13.25208 12.310362,20.30636 3.202174,6.29129 8.181342,19.53391 8.181342,19.53391 0,0 1.955023,1.45619 2.986487,1.17327 1.172793,-0.32169 2.239863,-2.87983 2.239863,-2.87983 L 102.82046,80.635135 99.863629,59.095534 100.26062,14.932432 c 0,0 -0.25708,-2.853766 -1.279925,-3.626448 -0.909571,-0.687108 -3.413127,-0.21332 -3.413127,-0.21332 0,0 -8.767605,9.37607 -11.907709,14.906271 -3.740544,6.587667 -7.980397,21.279439 -7.980397,21.279439 0,0 5.635992,-5.42886 9.066328,-5.020611 2.940363,0.349937 5.199393,3.369111 6.544246,6.007209 1.454191,2.852577 1.099584,9.542416 1.099584,9.542416 L 91.301158,164.6834 c 0,0 -0.434044,1.25351 -0.974459,1.51558 -0.734831,0.35635 -2.438668,-0.23566 -2.438668,-0.23566 z"
       inkscape:path-effect="#path-effect3009"
       id="path3007"
       d="m 76.355786,159.5077 c 4.625898,6.43308 8.746186,13.22963 12.310362,20.30636 3.178005,6.30998 5.914012,12.84252 8.181342,19.53391 0.321572,0.46771 0.785373,0.83622 1.313658,1.04376 0.528285,0.20754 1.118895,0.25327 1.672829,0.12951 0.643263,-0.14371 1.232693,-0.5172 1.637353,-1.03747 0.40466,-0.52028 0.62156,-1.18352 0.60251,-1.84236 L 102.82046,80.635135 99.863629,59.095534 100.26062,14.932432 c 0.19178,-0.656994 0.17196,-1.373996 -0.0558,-2.01939 -0.227783,-0.645395 -0.66241,-1.215995 -1.224095,-1.607058 -0.491815,-0.342417 -1.078604,-0.546892 -1.676713,-0.584274 -0.598108,-0.03738 -1.205791,0.09244 -1.736414,0.370954 -4.656116,4.363908 -8.680108,9.401209 -11.907709,14.906271 -3.850388,6.5673 -6.562776,13.799782 -7.980397,21.279439 0.629703,-1.780383 1.928881,-3.31498 3.580949,-4.229837 1.652068,-0.914856 3.642178,-1.201751 5.485379,-0.790774 1.504275,0.335407 2.894944,1.120943 4.012765,2.181988 1.117822,1.061045 1.966821,2.391171 2.531481,3.825221 1.180777,2.998781 1.132405,6.319708 1.099584,9.542416 L 91.301158,164.6834 c -0.07216,0.61765 -0.442465,1.19358 -0.974459,1.51558 -0.374423,0.22662 -0.822786,0.32876 -1.258422,0.28666 -0.435636,-0.0421 -0.856146,-0.22819 -1.180246,-0.52232 L 76.355786,159.5077"
       style="fill:#ffffff;stroke:none;stroke-width:0.96051277999999995;stroke-linecap:butt;stroke-linejoin:miter;stroke-opacity:1;stroke-miterlimit:4;stroke-dasharray:none;fill-opacity:1" />
    <path
       sodipodi:nodetypes="ccaccaccaccac"
       inkscape:connector-curvature="0"
       inkscape:original-d="m 101.96807,12.840322 -0.15084,39.972692 c 0,0 0.73281,3.444043 1.63539,4.916591 0.67935,1.108354 2.73898,2.776267 2.73898,2.776267 l 0,-7.542018 c 0,0 0.76061,-2.289751 1.73467,-2.790548 1.7252,-0.886986 5.80735,0.377102 5.80735,0.377102 l 24.13446,30.01723 c 0,0 1.55514,0.86116 2.12833,0.420261 0.55057,-0.423505 0.13427,-2.079505 0.13427,-2.079505 L 105.59363,13.65251 c 0,0 -1.08719,-1.589027 -1.93852,-1.690453 -0.62954,-0.075 -1.68704,0.878265 -1.68704,0.878265 z"
       inkscape:path-effect="#path-effect3013"
       id="path3011"
       d="m 101.96807,12.840322 -0.15084,39.972692 c 0.1039,1.743914 0.67402,3.457895 1.63539,4.916591 0.71998,1.092423 1.65639,2.041587 2.73898,2.776267 l 0,-7.542018 c 0.20253,-1.102845 0.83534,-2.120847 1.73467,-2.790548 0.8463,-0.630214 1.92007,-0.947859 2.97303,-0.879485 1.05295,0.06837 2.07663,0.522217 2.83432,1.256587 l 24.13446,30.01723 c 0.19835,0.361122 0.56186,0.627129 0.96606,0.706944 0.40421,0.07981 0.84154,-0.02806 1.16227,-0.286683 0.30389,-0.245046 0.49866,-0.620699 0.52381,-1.010266 0.0252,-0.389566 -0.11969,-0.787148 -0.38954,-1.069239 L 105.59363,13.65251 c -0.0711,-0.460375 -0.30946,-0.89307 -0.66055,-1.199235 -0.3511,-0.306165 -0.8122,-0.483401 -1.27797,-0.491218 -0.66074,-0.01109 -1.31716,0.330642 -1.68704,0.878265"
       style="fill:#ffffff;stroke:none;stroke-width:0.96051277999999995;stroke-linecap:butt;stroke-linejoin:miter;stroke-opacity:1;stroke-miterlimit:4;stroke-dasharray:none;fill-opacity:1" />
    <path
       sodipodi:nodetypes="cccsccaccacac"
       inkscape:connector-curvature="0"
       inkscape:original-d="m 105.95217,101.12982 c 0.15084,26.69874 -0.36393,26.80169 -0.36393,26.80169 l 33.6374,-41.308716 c 0,0 0.58304,-2.306942 -0.10177,-2.044482 -0.48353,0.185323 -1.95493,0.179331 -1.95493,0.179331 l -21.62523,17.832687 c 0,0 -1.25564,0.29759 -1.79229,0.0348 -0.68887,-0.33735 -1.37536,-1.84488 -1.37536,-1.84488 l 0.30168,-4.977727 c 0,0 -0.48723,-1.130334 -1.00766,-1.228155 -0.31686,-0.05956 -0.84313,0.473953 -0.84313,0.473953 0,0 -1.48899,1.279572 -2.12054,2.025713 -1.05578,1.24736 -2.75424,4.055786 -2.75424,4.055786 z"
       inkscape:path-effect="#path-effect3017"
       id="path3015"
       d="m 105.95217,101.12982 -0.36393,26.80169 33.6374,-41.308716 c 0.26927,-0.273099 0.41739,-0.661555 0.39833,-1.044602 -0.0191,-0.383046 -0.20504,-0.754872 -0.5001,-0.99988 -0.27952,-0.232105 -0.65275,-0.347868 -1.01456,-0.314679 -0.3618,0.03319 -0.70774,0.214924 -0.94037,0.49401 l -21.62523,17.832687 c -0.55863,0.2565 -1.22412,0.26943 -1.79229,0.0348 -0.37222,-0.15371 -0.70156,-0.40979 -0.94226,-0.73265 -0.24069,-0.32287 -0.39207,-0.71162 -0.4331,-1.11223 l 0.30168,-4.977727 c 0.064,-0.297311 -0.0147,-0.622055 -0.20755,-0.857166 -0.1929,-0.235111 -0.49603,-0.375663 -0.80011,-0.370989 -0.33602,0.0052 -0.66407,0.189576 -0.84313,0.473953 -0.75881,0.617882 -1.46861,1.295941 -2.12054,2.025713 -1.09191,1.222296 -2.02076,2.590082 -2.75424,4.055786"
       style="fill:#ffffff;stroke:none;stroke-width:0.96051277999999995;stroke-linecap:butt;stroke-linejoin:miter;stroke-opacity:1;stroke-miterlimit:4;stroke-dasharray:none;fill-opacity:1" />
    <path
       sodipodi:nodetypes="cccscaccccacacccccsccacacc"
       inkscape:connector-curvature="0"
       inkscape:original-d="m 142.69644,135.61087 c -3.73985,0.8086 -10.52676,2.33831 -10.52676,2.33831 l 1.83162,4.55873 c -3.60978,-1.78796 -7.8622,-3.25561 -11.614,-4.48263 -3.75039,-1.22655 -7.00011,-2.21264 -10.93545,-3.03784 0,0 -1.4346,-1.39443 -1.57373,-2.31789 -0.1328,-0.88148 0.78362,-2.55689 0.78362,-2.55689 l 47.87146,-54.673634 1.59099,-0.995646 2.33086,-0.814398 c 0,0 -5.33729,13.007808 -8.11654,19.464854 -2.00694,4.662745 -6.17977,13.918744 -6.17977,13.918744 0,0 -1.09201,-1.82339 -2.02079,-2.1381 -1.17989,-0.3998 -3.68951,0.59612 -3.68951,0.59612 l -28.86566,25.93019 45.36489,0.4597 c -3.89351,2.72157 -11.6947,2.77948 -16.25123,3.75038 z m -34.69475,60.80211 c -0.0208,-0.14555 -1.64214,-1.39509 -1.97103,0.5198 -0.181,1.05382 -1.04578,-2.93324 -1.04578,-2.93324 l 8.46802,-30.48955 c 0,0 1.27572,5.1828 3.43652,5.86037 2.05823,0.64541 5.87473,-2.71356 5.87473,-2.71356 0,0 8.45316,-8.13982 12.73435,-12.15199 7.66714,-7.18536 23.19511,-21.34751 23.19511,-21.34751 -1.16042,10.41064 -40.69463,51.03154 -50.69192,63.25568 z"
       inkscape:path-effect="#path-effect3021"
       id="path3019"
       d="m 142.69644,135.61087 c -3.50639,0.79076 -7.01534,1.57021 -10.52676,2.33831 l 1.83162,4.55873 c -3.79186,-1.69014 -7.66989,-3.18694 -11.614,-4.48263 -3.5955,-1.18117 -7.24589,-2.19524 -10.93545,-3.03784 -0.84128,-0.47753 -1.44029,-1.35978 -1.57373,-2.31789 -0.12695,-0.91148 0.16775,-1.87307 0.78362,-2.55689 l 47.87146,-54.673634 1.59099,-0.995646 2.33086,-0.814398 c -2.61952,6.523698 -5.32535,13.01274 -8.11654,19.464854 -2.01554,4.659119 -4.07559,9.298984 -6.17977,13.918744 -0.33062,-0.95504 -1.0859,-1.75417 -2.02079,-2.1381 -0.60629,-0.24898 -1.2818,-0.32683 -1.92883,-0.22229 -0.64703,0.10454 -1.26365,0.39116 -1.76068,0.81841 l -28.86566,25.93019 45.36489,0.4597 c -5.41079,1.27717 -10.82795,2.52732 -16.25123,3.75038 m -34.69475,60.80211 c -0.24628,0.25945 -0.56578,0.44865 -0.91168,0.53987 -0.34591,0.0912 -0.71715,0.0842 -1.05935,-0.0201 -0.57649,-0.17564 -1.05868,-0.63579 -1.26106,-1.20344 -0.20238,-0.56765 -0.12007,-1.22907 0.21528,-1.7298 l 8.46802,-30.48955 c -0.51822,1.20951 -0.42686,2.66269 0.23875,3.79777 0.66561,1.13508 1.88921,1.92432 3.19777,2.0626 1.10494,0.11677 2.22141,-0.2098 3.19939,-0.73714 0.97797,-0.52734 1.83613,-1.24824 2.67534,-1.97642 4.43248,-3.84604 8.54819,-8.03921 12.73435,-12.15199 7.49689,-7.36547 15.23407,-14.48636 23.19511,-21.34751 l -50.69192,63.25568"
       style="fill:#ffffff;stroke:none;stroke-width:0.96051277999999995;stroke-linecap:butt;stroke-linejoin:miter;stroke-opacity:1;stroke-miterlimit:4;stroke-dasharray:none;fill-opacity:1" />
    <path
       sodipodi:nodetypes="ccacccacscccacaccccaccc"
       inkscape:connector-curvature="0"
       inkscape:original-d="m 164.31441,132.66556 44.27017,-0.20591 c 0,0 4.08737,-0.13665 4.46684,1.37424 0.30169,1.20124 -2.61367,2.64096 -2.61367,2.64096 l -19.97305,8.75109 0.72068,-2.98567 c 0,0 -0.96347,-2.75856 -2.08073,-3.55835 -0.62052,-0.4442 -2.24333,-0.45685 -2.24333,-0.45685 0,0 -18.48382,4.09065 -23.21378,7.93345 -4.09051,3.32329 -18.48255,17.59912 -18.48255,17.59912 l 42.6229,0.92658 -23.37052,9.67767 c 0,0 -3.64122,-3.66132 -6.0119,-4.40249 -2.21515,-0.69254 -6.9603,0.18138 -6.9603,0.18138 0,0 -13.64361,5.85259 -19.61347,10.16309 -4.95387,3.57691 -13.12587,12.79563 -13.12587,12.79563 l 44.88791,5.97132 -24.81189,9.26585 3.91224,-4.22111 c 0,0 0.70173,-0.69005 0.59713,-1.09131 -0.12057,-0.46254 -1.21485,-0.76186 -1.21485,-0.76186 l -36.85749,1.02954 z"
       inkscape:path-effect="#path-effect3025"
       id="path3023"
       d="m 164.31441,132.66556 44.27017,-0.20591 c 0.84271,-0.004 1.68936,-0.0687 2.52659,0.0273 0.41861,0.048 0.83834,0.15049 1.19915,0.36813 0.1804,0.10881 0.3445,0.24643 0.47462,0.41212 0.13013,0.16569 0.22568,0.36 0.26648,0.56669 0.0648,0.32855 -0.012,0.67531 -0.17199,0.96949 -0.16002,0.29418 -0.39881,0.53999 -0.66518,0.74295 -0.53275,0.40592 -1.16303,0.65973 -1.7765,0.92852 l -19.97305,8.75109 0.72068,-2.98567 c 0.0133,-0.72245 -0.17606,-1.44754 -0.5408,-2.0713 -0.36473,-0.62375 -0.90382,-1.14432 -1.53993,-1.48705 -0.68155,-0.36721 -1.47246,-0.52827 -2.24333,-0.45685 -8.18147,0.9686 -16.15078,3.69216 -23.21378,7.93345 -7.35241,4.41508 -13.71294,10.47159 -18.48255,17.59912 l 42.6229,0.92658 -23.37052,9.67767 c -1.42595,-2.09293 -3.58616,-3.67484 -6.0119,-4.40249 -2.26081,-0.67818 -4.73788,-0.61363 -6.9603,0.18138 -7.02689,2.30517 -13.67802,5.75157 -19.61347,10.16309 -4.91864,3.65577 -9.34598,7.97172 -13.12587,12.79563 l 44.88791,5.97132 -24.81189,9.26585 3.91224,-4.22111 c 0.14449,-0.15589 0.28996,-0.31286 0.40331,-0.49267 0.11334,-0.17982 0.19383,-0.38608 0.19382,-0.59864 -1e-5,-0.14255 -0.0368,-0.28495 -0.1058,-0.40969 -0.069,-0.12473 -0.17012,-0.23154 -0.29089,-0.30728 -0.12077,-0.0757 -0.26094,-0.12024 -0.40328,-0.12805 -0.14235,-0.008 -0.28655,0.0211 -0.41488,0.0832 l -36.85749,1.02954 59.09553,-70.62637"
       style="fill:#ffffff;stroke:none;stroke-width:0.96051277999999995;stroke-linecap:butt;stroke-linejoin:miter;stroke-opacity:1;stroke-miterlimit:4;stroke-dasharray:none;fill-opacity:1" />
    <path
       style="fill:#ffffff;stroke:none;stroke-width:0.92702441999999996;stroke-linecap:butt;stroke-linejoin:miter;stroke-miterlimit:4;stroke-opacity:1;stroke-dasharray:none;fill-opacity:1"
       d="m 53.914245,49.69303 -0.11617,17.800321 c 0.647476,1.813013 1.600604,2.5683 3.223727,3.409802 l 0,-3.352009 c 1.331406,-1.932345 3.461958,-1.418761 5.605219,-1.069175 L 79.00704,78.763035 78.885952,119.08431 62.623113,130.91744 c -1.494356,0.28955 -1.648194,0.0461 -2.597358,-1.18059 l 0.01257,-2.27882 c -1.637562,0.10678 -2.748871,0.5494 -3.815562,1.31671 -1.422094,1.28478 -1.756707,3.93778 -1.756707,3.93778 0.03787,4.08476 0.05101,7.19624 0.05101,12.24873 10.654185,-5.94921 19.670554,-13.94017 29.944093,-20.33069 2.133025,-1.5999 2.223708,-1.5566 2.465338,-4.30111 L 86.607133,80.723359 c 0,-4.637197 -1.090807,-7.641965 -4.278241,-9.773591 C 72.785582,63.145184 62.407097,54.539556 57.044606,49.928609 56.068616,49.149604 54.792532,48.403964 53.914245,49.69303 z"
       id="path3015-1"
       inkscape:connector-curvature="0"
       sodipodi:nodetypes="ccccccccccccccccccc" />
  </g>
</svg>
